<?xml version="1.0" standalone="no"?>
<!DOCTYPE svg PUBLIC "-//W3C//DTD SVG 1.1//EN" "http://www.w3.org/Graphics/SVG/1.1/DTD/svg11.dtd" >
<svg xmlns="http://www.w3.org/2000/svg">
<metadata>
Created by FontForge 20120731 at Sat Jan 30 17:17:07 2016
 By Ads
</metadata>
<defs>
<font id="iconfont" horiz-adv-x="1024" >
  <font-face 
    font-family="iconfont"
    font-weight="500"
    font-stretch="normal"
    units-per-em="1024"
    panose-1="2 0 6 3 0 0 0 0 0 0"
    ascent="896"
    descent="-128"
    x-height="792"
    bbox="0.344828 -212 1024.08 896.008"
    underline-thickness="50"
    underline-position="-100"
    unicode-range="U+0078-F0010"
  />
<missing-glyph horiz-adv-x="374" 
d="M34 0v682h272v-682h-272zM68 34h204v614h-204v-614z" />
    <glyph glyph-name=".notdef" horiz-adv-x="374" 
d="M34 0v682h272v-682h-272zM68 34h204v614h-204v-614z" />
    <glyph glyph-name=".null" horiz-adv-x="0" 
 />
    <glyph glyph-name="nonmarkingreturn" horiz-adv-x="341" 
 />
    <glyph glyph-name="x" unicode="x" horiz-adv-x="1001" 
d="M281 543q-27 -1 -53 -1h-83q-18 0 -36.5 -6t-32.5 -18.5t-23 -32t-9 -45.5v-76h912v41q0 16 -0.5 30t-0.5 18q0 13 -5 29t-17 29.5t-31.5 22.5t-49.5 9h-133v-97h-438v97zM955 310v-52q0 -23 0.5 -52t0.5 -58t-10.5 -47.5t-26 -30t-33 -16t-31.5 -4.5q-14 -1 -29.5 -0.5
t-29.5 0.5h-32l-45 128h-439l-44 -128h-29h-34q-20 0 -45 1q-25 0 -41 9.5t-25.5 23t-13.5 29.5t-4 30v167h911zM163 247q-12 0 -21 -8.5t-9 -21.5t9 -21.5t21 -8.5q13 0 22 8.5t9 21.5t-9 21.5t-22 8.5zM316 123q-8 -26 -14 -48q-5 -19 -10.5 -37t-7.5 -25t-3 -15t1 -14.5
t9.5 -10.5t21.5 -4h37h67h81h80h64h36q23 0 34 12t2 38q-5 13 -9.5 30.5t-9.5 34.5q-5 19 -11 39h-368zM336 498v228q0 11 2.5 23t10 21.5t20.5 15.5t34 6h188q31 0 51.5 -14.5t20.5 -52.5v-227h-327z" />
    <glyph glyph-name="uniE60A" unicode="&#xe60a;" 
d="M683 -100h-342q-8 0 -15 4t-11 11t-4 15q0 6 2.5 11.5t6.5 9.5t9.5 6.5t11.5 2.5h342q8 0 15 -4t11 -11t4 -15q0 -12 -9 -21t-21 -9zM779 -10h-535l-7 4q-98 63 -153.5 160t-55.5 207v9q0 5 0.5 9.5t0.5 9t1 9.5v8l2 10q0 4 1 9l4 25h950l3 -25q5 -32 5 -64
q0 -110 -55 -207t-153 -160zM262 49h500q82 55 128 137.5t46 174.5q0 15 -1 29h-846q-1 -15 -1 -29q0 -92 46 -174.5t128 -137.5zM325.5 657q-12.5 0 -20.5 9q-20 19 -30 45t-10 51.5t10 51t30 45.5q3 3 7.5 5.5t9 3t9 0t8.5 -3t8 -5.5q9 -9 9 -21t-9 -21q-23 -23 -23 -55
t23 -54q9 -9 9 -21t-9 -21t-21.5 -9zM325.5 506q-12.5 0 -20.5 9q-3 2 -4.5 5t-2.5 6t-1.5 6.5t0 6.5t1.5 6.5t2.5 6.5t4.5 5q22 22 22 54q0 8 -1.5 15.5t-4 14.5t-7 13t-9.5 12q-6 6 -8 13.5t0 15t8 13.5q3 3 7.5 5.5t9 3t9 0t8.5 -3t8 -5.5q40 -40 40 -97q0 -18 -4.5 -35
t-13.5 -32.5t-22 -28.5q-9 -9 -21.5 -9zM517.5 657q-12.5 0 -21.5 9q-19 19 -29.5 45t-10.5 51.5t10.5 51t29.5 45.5q3 3 6.5 5t7 3t7.5 1t7.5 -1t7 -3t6.5 -5q4 -4 6 -8t2.5 -8.5t0 -9t-2.5 -9t-6 -7.5q-7 -8 -12 -17t-7.5 -18.5t-2.5 -19.5t2.5 -19.5t7.5 -18.5t12 -16
q4 -3 6 -7.5t2.5 -9t0 -9t-2.5 -9t-6 -7.5q-8 -9 -20.5 -9zM517.5 506q-12.5 0 -21.5 9t-9 21t9 21q15 15 20 34.5t0 39.5t-20 35q-6 6 -8 13.5t0 15t8 13.5q3 3 6.5 5t7 3t7.5 1t7.5 -1t7 -3t6.5 -5q26 -26 35.5 -61.5t0 -70.5t-35.5 -61q-8 -9 -20.5 -9zM697.5 657
q-12.5 0 -20.5 9q-16 16 -26 35.5t-13 40t0 41.5t13 40.5t26 35.5q3 3 6 5t7 3t8 1t7.5 -1t7 -3t6.5 -5q4 -4 6 -10t2 -11.5t-2 -11t-6 -9.5q-8 -8 -13 -17t-7.5 -18.5t-2.5 -19.5t2.5 -19.5t7.5 -18.5t13 -16q4 -4 6 -9.5t2 -11.5t-2 -11.5t-6 -9.5q-9 -9 -21.5 -9z
M697.5 506q-12.5 0 -21 9t-8.5 21t9 21q22 22 22 54t-22 55q-5 4 -7 9.5t-2 11t2 11.5t6.5 10t10 6.5t11 2.5t11 -2.5t10.5 -6.5q40 -40 40 -96.5t-40 -96.5q-9 -9 -21.5 -9z" />
    <glyph glyph-name="uniE60D" unicode="&#xe60d;" 
d="M883 355h-39h-102h-142h-159h-153h-125h-73h-10q-6 0 -10 -4t-4 -10q-6 -123 56 -229q58 -100 161 -156q12 -7 25.5 -13t27.5 -11q21 -8 28 -8h45h150h42q2 0 4 0.5t4 0.5q4 2 9 3l8 4q5 1 9 3q14 5 27 11.5t26 13.5q24 14 47 31.5t43 37.5t37 42.5t31 47.5
q58 103 52 222q0 6 -4.5 10t-10.5 4q-5 0 -9.5 -4t-4.5 -10q1 -16 0.5 -32t-2.5 -32v-7l-1 -2v1v-3q0 -3 -0.5 -5.5t-1 -4.5t-0.5 -5q-3 -14 -7 -28q-3 -13 -8 -27l-2 -6q-1 -3 -2 -7l-3 -6q0 -1 -1 -3l-1 -1v-1q-5 -13 -11.5 -25t-13.5 -24t-15 -24l-8 -10v-1l-2 -2v-1
q-2 -2 -5 -6l-12 -14q-6 -7 -12.5 -13.5t-13.5 -12.5q-9 -9 -21 -18q-2 -2 -5 -4l-1 -1h1q-1 0 -3 -2q-5 -4 -12 -8q-22 -16 -47 -29q-12 -6 -26 -12q-1 -1 -3 -2l-7 -2q-6 -3 -13 -5q-3 -1 -7 -2q-1 0 -2 -1h2h-1h-5h-50h-150h-36h2h-1q-7 2 -14 5q-3 1 -6.5 2.5t-6.5 2.5
q-1 0 -3 1l-1 1q-1 0 -3 1l-4 2q-25 11 -49 26q-4 2 -8 5t-7.5 5.5t-7.5 4.5q-2 2 -5 4l-1 1q-1 1 -2 1l-1 1q-5 4 -11 9q-5 4 -10 9t-10 9.5t-10 9.5l-10 10q-8 10 -17 21l-1 2v-1q0 1 -2 3q-1 2 -4 5q-4 5 -8 12q-15 22 -28 48q-1 2 -2 4.5t-3 5.5q0 2 -2 5q0 1 -0.5 1.5
t-0.5 1.5v1q-2 3 -3 5.5t-2 5.5t-2 5.5t-2 5.5q-7 22 -13 46q0 3 -0.5 6t-1.5 6t-1.5 5.5t-0.5 5.5q0 2 -0.5 3.5t-0.5 2.5v1v2q-1 6 -2 13q-2 27 -1 56l-1 -1l-1 -1l-1 -1l-1 -1l-1 -1l-1 -1l-1 -1l-1 -1l-1 -1l-1 -1l-1 -1l-1 -1l-1 -1l-1 -1h39h102h142h159h154h124h73
h10q3 0 6 1t5 3t3 4.5t1 5.5q0 6 -4.5 10t-10.5 4zM359 -61h246v-36h-246v36zM666 343q3 4 8.5 12t7.5 13q7 10 21 31t21 31v1l1 1l1 1v1l1 1l1 1v1l1 1l1 1v1l1 1l1 1v1l1 1l1 1v1l1 1l1 1v1l1 1l1 1v1l1 1l1 1v1l1 1l1 1v1l1 1l1 1v1l1 1l1 1v1l1 1l1 1v1l1 1l1 1v1l1 1
l1 1v1l1 1l1 1v1l1 1l1 1v1l1 1l1 1v1l1 1l1 1v1l1 1l1 1v1l1 1v1l1 1l1 1v1l1 1l1 1v1l1 1l1 1v1l1 1l1 1v1l1 1l1 1v1l1 1l1 1v1l1 1l1 1l1 2q42 65 54 83q7 11 21.5 32.5t21.5 32.5q10 15 20 29v1q3 4 1.5 10t-6.5 9q-6 3 -11.5 1.5t-8.5 -6.5q-2 -3 -4 -6.5t-4 -6
t-4.5 -6t-3.5 -6.5q-7 -10 -21 -31t-21 -32v-1l-1 -1l-1 -1v-1l-1 -1l-1 -1v-1l-1 -1l-1 -1v-1l-1 -1l-1 -1v-1l-1 -1l-1 -1v-1l-1 -1l-1 -1v-1l-1 -1l-1 -1v-1l-1 -1l-1 -1v-1l-1 -1l-1 -1v-1l-1 -1l-1 -1v-1l-1 -1l-1 -1v-1l-1 -1l-1 -1v-1l-1 -1l-1 -1v-1l-1 -1l-1 -1v-1
l-1 -1l-1 -1v-1l-1 -1l-1 -1v-1l-1 -1l-1 -1v-1l-1 -1v-1l-1 -1l-1 -1v-1l-1 -1l-1 -1v-1l-1 -1l-1 -1v-1l-1 -1l-1 -1v-1l-1 -1l-1 -1v-1l-1 -1l-1 -1v-1l-1 -1l-1 -1v-1l-1 -1l-1 -1v-1l-1 -1l-1 -1l-1 -1q-42 -65 -54 -83l-14 -21q-8 -12 -15.5 -23.5t-13.5 -20.5
l-20 -30q-2 -3 -2 -7t2 -7.5t5 -4.5q6 -3 11.5 -1.5t8.5 6.5zM729 334q2 2 4 5.5t4 6.5t4 6.5t4 6.5q6 8 13.5 19.5t15 22.5t12.5 20l1 1l1 1v1l1 1l1 1v1l1 1l1 1v1l1 1l1 1v1l1 1l1 1v1l1 1l1 1v1l1 1l1 1v1l1 1l1 1v1l1 1l1 1v1l1 1l1 1v1l1 1l1 1v1l1 1l1 1v1l1 1l1 1v1
l1 1l1 1v1l1 1l1 1v1l1 1l1 1v1l1 1l1 1v1l1 1l1 1v1l1 1l1 1v1l1 1l1 1v1l1 1l1 1v1l1 1l1 1v1l1 1v1l1 1l1 1v1l1 1l1 1v1l1 1l1 1v1l1 1l1 1v1l1 2q43 65 55 83q7 11 21.5 32.5t21.5 32.5q10 15 19 29v1q4 4 2 10t-7 9t-10.5 1.5t-8.5 -6.5q-3 -4 -8.5 -12.5t-8.5 -12.5
q-7 -10 -20.5 -31t-20.5 -32l-1 -1v-1l-1 -1l-1 -1v-1l-1 -1l-1 -1v-1l-1 -1l-1 -1v-1l-1 -1l-1 -1v-1l-1 -1l-1 -1v-1l-1 -1l-1 -1v-1l-1 -1v-1l-1 -1l-1 -1l-1 -1v-1l-1 -1l-1 -1v-1l-1 -1l-1 -1v-1l-1 -1l-1 -1v-1l-1 -1l-1 -1v-1l-1 -1l-1 -1v-1l-1 -1v-1l-1 -1l-1 -1
v-1l-1 -1l-1 -1v-1l-1 -1l-1 -1v-1l-1 -1l-1 -1v-1l-1 -1l-1 -1v-1l-1 -1l-1 -1v-1l-1 -1l-1 -1v-1l-1 -1l-1 -1v-1l-1 -1l-1 -1v-1l-1 -1l-1 -1v-1l-1 -1l-1 -1v-1l-1 -1l-1 -1v-1l-1 -1l-1 -1q-42 -65 -54 -83q-8 -11 -22 -32.5t-21 -32.5l-20 -30q-2 -3 -2 -7t2 -7.5
t5 -5.5q12 -6 20 6zM284 396q-53 0 -82 1h-15q-6 0 -10 1h-7q-5 1 -8 2.5t-5 4.5q-1 0 -4 2q-5 2 -8.5 4t-8.5 6t-8 8q-3 5 -3.5 11t0 9.5t1.5 8.5q1 3 1 4.5t0.5 3.5t-0.5 3q-2 12 3 21v0q-5 11 -2 20q4 11 21 19l1 1q3 4 4 7l4 8l5 9q6 21 31 22h6q3 1 5 2.5t6 3.5
q2 1 3 2t3.5 2.5t4.5 2.5q4 2 6 6q1 3 3 5q4 5 11 10t9 8q3 3 6 5t6.5 3t7.5 1h8q3 -1 5 -1q6 0 14 8q3 3 8 6q2 2 3 2.5t2 2t2 2.5q5 8 15 12l1 1q2 4 7 7t13 6q6 3 12 5h2h2q13 1 24 1q6 0 9.5 -0.5t5.5 -0.5q3 -1 6.5 -3t5 -3.5t3.5 -4.5l2 -2q4 -1 10 -3t9.5 -3.5
t6.5 -2.5v0q2 -1 5 -1q2 0 4.5 0.5t6.5 0.5q2 0 3 0.5t2 0.5h3q25 0 36 -21l5 2q3 0 4.5 0.5t4 1t4.5 0.5h3q2 0 3 -1q3 0 9 1q8 1 12 1q8 0 13 -4t12 -13q1 -2 2 -3t2 -3t2 -3l3 -3l2 -2q1 -1 7 -2q18 -3 23 -15q2 -2 8 -4.5t13 -5.5q8 -3 10 -5q26 -12 32 -28q4 -11 5 -27
t-7 -33q-5 -7 -14 -12q-5 -4 -7 -9q-4 -15 -15 -25q-2 -2 -2 -3q-1 -4 -5 -12l-6 -12q-2 -4 -3 -7l-4 -7l-9 -1h-56q-47 0 -131.5 -1t-142.5 -1zM154 413q0 -1 1 -2zM176 426q21 -1 108 -1q122 0 321 2q7 14 9 20l2 4q1 2 2.5 4t2.5 3l2 2l3 3q1 1 2.5 4t2.5 7q1 5 3 8.5
t4 6t4.5 5t4.5 3.5t5 3q3 1 4 2q1 2 1.5 6.5t0 9.5t-1.5 9.5t-2 7.5q-3 6 -18 14q-1 1 -8 4q-29 11 -35 23h-3q-2 0 -3 0.5t-3 1t-3.5 1t-3.5 1.5l-4 2l-4 2q-6 6 -16 20q-2 3 -3 4q-2 0 -7 -1h-3q-2 0 -4.5 -0.5t-4.5 -0.5q-4 0 -7 1q-1 0 -3 -1q-3 -1 -5 -1.5t-5.5 -1
t-6.5 -0.5q-16 0 -21 14q-3 7 -12 7h-6q-9 -1 -13 -1q-9 0 -15 2q-17 7 -25 9q-3 1 -6 3t-4.5 3.5t-4.5 3.5l-1 2h-7h-21q-11 -4 -15 -7q-4 -6 -13 -10l-2 -1q-2 -3 -5 -6.5t-5 -5t-5.5 -3.5t-3.5 -3q-17 -17 -35 -17q-3 0 -5 0.5t-5 0.5l-1 1q-5 -6 -14 -12l-5 -4l-1 -1
q-5 -11 -17 -18q-4 -2 -8 -5t-6 -4l-6 -3q-4 -2 -8 -3q-2 -1 -3.5 -1t-3.5 -0.5t-3 -0.5h-3h-5v-1q-2 -6 -5 -13t-5.5 -10.5t-5.5 -7.5q-1 -3 -2 -3q-1 -3 -3 -5t-4 -2.5t-5 -2.5q-2 -1 -3 -1q6 -15 -2 -26q2 -9 -1 -23q-2 -7 -1 -8q1 -2 13 -8q2 -1 3.5 -1.5t3.5 -2t3 -2.5
z" />
    <glyph glyph-name="uniE60E" unicode="&#xe60e;" 
d="M701 230l-54 164l-50 -133l-82 172l-71 -171l-67 134l-43 -163l-64 48l34 -119h429l45 129zM720 185h-400l-12 38l41 -27l34 133l62 -117l71 157l81 -161l51 116l45 -133l45 39zM315 128q13 -42 17 -55t18 -24t33 -11h282q31 0 42 34q15 48 15 56h-407zM654 61h-78h-128
h-74q-6 0 -11 4.5t-7.5 11t-4.5 13t-3 11.5l-1 5h341q0 -1 -0.5 -2.5t-1 -6.5t-2 -9t-4 -9.5t-6 -9t-9 -6t-11.5 -2.5zM778 377q14 0 24 -10t10 -24t-10 -24t-24 -10t-24 10t-10 24q0 24 23 32q6 2 11 2zM513 535q8 0 15 -3t12.5 -8.5t8.5 -13t3 -15.5q0 -16 -11.5 -27.5
t-28 -11.5t-28 11.5t-11.5 27.5q0 11 5.5 20t14.5 14.5t20 5.5zM259 377q14 0 24 -10t10 -24t-10 -24t-24 -10t-24 10t-10 24q0 24 23 32q6 2 11 2z" />
    <glyph glyph-name="uniE60F" unicode="&#xe60f;" 
d="M619 -97q-14 29 -20 50q-2 10 -2.5 16t1.5 7q3 2 2 16q-1 8 -1.5 15.5t-1.5 13.5q-1 7 -1 11.5t2 5.5q3 2 2 13q0 10 -4 11q-3 1 -5.5 -1t-5.5 -6q-6 -8 -30 -32t-26 -24q-3 0 -13 -8q-2 -2 -4 -3.5t-4 -2.5l-2 -2q-2 -1 -4 -1h-2q-7 0 -7 -4t-14 -4h-14l-11 37
q-13 41 -14 52q0 3 1 6.5t3 7t5 6.5q3 4 7 8t8 7t9 6q14 9 16 4q1 -1 2 -1.5t2.5 -0.5t2.5 0.5t2 1.5q2 3 0 6q-2 5 2 7q2 2 2 -1q0 -1 -1 -1q-5 -14 21 9q15 14 17.5 14t31.5 27q25 24 21 24q-2 -1 -3.5 -2t-2.5 -2t-2 -2.5t-1 -2.5q-2 -4 -2.5 0.5t7 11t6.5 8.5
q0 1 -2.5 1.5t-6.5 0.5q-7 0 -12.5 1.5t-10.5 4.5t-9.5 7t-8.5 10t-7 13q-16 35 -8 39q3 4 4 10q0 3 5 10t15 19q5 5 9 9.5t7 7t5.5 4t3.5 1.5q5 0 13.5 10t21.5 21q7 5 11 9.5t7 8.5l4 6l-6 -4q-7 -6 -39 -32.5t-34 -24.5q0 1 1 2.5t2.5 3t3.5 3t4.5 4t5.5 4.5q87 73 87 77
q0 2 -17 10q-8 4 -14 8t-9 7l-2 2l-2 2q-3 2 -5 3l-2 2l-2 2l-3 2l-2 4q-2 1 -3.5 3.5t-3.5 4.5q-5 6 -9 8.5t-6 2.5q-5 -2 -7 4q0 3 3.5 5t11.5 4q5 1 9 1.5t6 0.5q4 -1 9 -7q8 -8 29 -8q44 0 45 18q5 89 3 135q0 9 1 36v13q1 5 1 8q1 1 1 2t1 2h2q3 -1 6 -1.5t6 -0.5
q-13 6 -26 11.5t-26.5 10t-27.5 8t-28.5 6.5t-29 5t-29 3t-29.5 1q-92 0 -175 -35.5t-143 -95.5t-95 -143t-35 -174t35 -174t95 -143t143 -95.5t175 -35.5q64 0 125 18q-4 7 -8.5 15.5t-8.5 17.5zM551 331q4 0 4 -4q0 -1 -1 -2t-3 -1q-3 0 -3 3q1 3 3 4zM538.5 156
q27.5 22 31 22t-11.5 -13q-3 -2 -6.5 -4.5t-6.5 -4.5l-6 -6q-3 -2 -6 -5t-7 -5q-15 -13 -15 -9.5t27.5 25.5zM406 190q-3 0 -4 3q-4 7 -8.5 7t-11.5 22.5t-7 36.5q0 13 8.5 22.5t15.5 23.5l6 13l-15 3q-13 3 -21 6q-14 8 -27 0t-13 -24v-19q0 -8 6 -18q21 -37 28 -55
q8 -23 4.5 -31t-22.5 -4q-1 0 -3 0.5t-3.5 1.5t-3.5 2.5t-4.5 3t-4.5 3t-4 3.5q-4 3 -6.5 6t-4.5 5.5t-3 4.5t-1 4t-0.5 3.5t-2.5 3t-4 2.5q-7 5 -7 16q0 4 -1 7t-2.5 6.5t-4.5 5.5q-4 5 -5.5 13t-1.5 20q0 25 -7 48q-3 7 -4.5 12.5t-2 9t-0.5 4.5h16q5 -3 17 -17
q6 -7 10 -12.5t5 -9.5l2 1q1 0 2.5 0.5t3.5 1.5q1 0 2 1t2.5 2t3.5 2q5 5 13.5 8.5t19 6t23.5 3.5q19 2 33 0.5t22 -6.5q10 -8 13 -5q2 1 4 -6q6 -18 3 -44q-2 -9 -6 -21.5t-11 -26.5q-5 -10 -9.5 -18t-8.5 -13.5t-8 -9.5q-2 -2 -4.5 -4t-3.5 -3zM710 316q4 0 16 6q7 4 9 7
q1 1 1 3v3q0 2 -1 4q-2 12 -2.5 39.5t-2.5 33.5q-4 11 -11 -2q-5 -8 -6 -18q-2 -23 -3 -36l-2 -23q0 -9 1 -13q0 -2 1 -3v-1zM716 692q1 -12 1 -77q0 -88 3 -95q1 -4 3 -5.5t4 -1.5t3.5 1t3.5 2.5t4 3.5q5 7 17.5 5.5t13.5 -5t7 -3.5q2 0 4.5 -1t5.5 -2t7 -4q12 -6 15 -12
q4 -5 4 -10.5t-3.5 -11.5t-11.5 -13q-29 -27 -35 -27q-4 0 -4 -6t10 -33q1 -5 2.5 -8.5t2.5 -6.5t2 -5.5t2 -4.5l1 -3q1 -1 2 -1q3 -3 13 -23t10 -26t-6.5 -18t-12.5 -17q-7 -6 -24 -14q-8 -4 -13.5 -6t-7.5 -2q-6 0 -7 -3q0 -7 -1 -13.5t-2.5 -11.5t-3.5 -10
q-5 -12 -20 -27q-3 -2 -4 -5t-1 -6q-1 -2 -1 -4v-6v-4q-1 -4 0.5 -7.5t3.5 -6.5q5 -5 15 -6q5 0 12 -0.5t16 -0.5q18 -1 83 -3q33 -2 50 -3t18 -2q1 0 2.5 -0.5t4 -0.5t6.5 -0.5t8 -0.5q7 0 11 -1q30 77 30 160q0 64 -18 125t-50 112t-77.5 92.5t-99.5 69.5q1 -1 1.5 -3
t0.5 -4zM636.5 -30.5q9.5 -20.5 16.5 -28.5l7 -8l-1 36q-6 77 0 137v14v7q-1 4 -6 4q-4 0 -5.5 -1t-1.5 -2t-2 -3.5t-6 -7t-9 -10.5q-18 -19 -18.5 -34t12.5 -68q4 -15 13.5 -35.5zM886 95q-6 2 -49 5q-25 1 -43.5 2.5t-30 4t-23 6.5t-22.5 9q-12 7 -17 3q-2 -1 -3.5 -5.5
t-1.5 -11.5q1 -5 1 -12v-18v-21q0 -15 0.5 -36t2.5 -49q4 -57 7 -60q0 -1 0.5 -4.5t0.5 -9.5q131 64 199 192q-17 4 -21 5zM651 285q16 4 19.5 14t6.5 53q0 4 0.5 7.5t0.5 7.5v11v4q-1 0 -3 -1.5t-5.5 -3.5t-9.5 -6q-26 -18 -72 -71q-36 -44 -22 -44q3 0 6 1q12 3 36.5 11.5
t27.5 10.5q4 4 15 6z" />
    <glyph glyph-name="uniE611" unicode="&#xe611;" 
d="M644 -41q-15 25 -37.5 101t-30.5 120q-5 24 -6.5 75.5t-0.5 94.5t3 49q1 1 4.5 7.5t5.5 11.5t4.5 13t2 15t-4.5 14t-12 12l-3 14q3 5 7 7q6 0 17.5 13.5t22.5 33t13 36.5q2 13 1 40t-2 41.5t4 24.5q8 9 10.5 31t-5.5 32q-9 7 -17 -6.5t-13 -31.5q-2 -7 -0.5 -48.5
t-2.5 -65.5q-5 -27 -18.5 -44.5t-25.5 -24.5q-11 -7 -16 11q-3 13 2 31q3 13 1 23t-7 18t-12.5 12t-16.5 5q-17 1 -37 -26t-19 -58q1 -13 3 -27t3 -19.5t-1.5 -12t-10.5 -12.5q-11 -7 -29 -23.5t-35 -33.5t-27 -28q-9 -11 -23.5 -19t-23 -12.5t-7.5 -10.5q2 -28 34 1l4 4
t7 6.5t5.5 4t7 4.5t9.5 6q2 2 23.5 18t36.5 26t19.5 10t8.5 -3.5t11 -14.5l7 -11q6 -9 5 -36.5t-6 -39.5q-3 -4 -22.5 -25t-41.5 -44t-41.5 -48t-21.5 -37q-8 -37 87 -24q19 4 33.5 1.5t9.5 -18.5q-6 -18 -15 -67t-12 -86q-3 -39 3.5 -53.5t30.5 -18.5q16 -3 29 0.5t18.5 10
t3.5 12.5q-2 4 -7.5 5t-11.5 1t-12 4t-9 14q-5 18 4 69t17 71q4 11 9 17.5t10.5 4t8.5 -17.5t15 -43t28.5 -63t22.5 -48q10 -24 16.5 -37.5t15 -26t16.5 -16.5l12 1q11 6 15 23q2 13 -3 24t-19 28.5t-21 28.5z" />
    <glyph glyph-name="uniE612" unicode="&#xe612;" 
d="M894 -7l-239 242q73 77 73 205t-86.5 217t-212.5 89t-215 -90t-89 -216q0 -127 88 -213.5t214 -86.5q115 0 188 57l241 -244q7 -6 16 -6t20 11q7 7 8 17.5t-6 17.5zM173 443q0 106 74 180.5t178.5 74.5t178.5 -74.5t74 -180t-74 -180t-178 -74.5q-111 0 -186 81
q-67 74 -67 173z" />
    <glyph glyph-name="uniE616" unicode="&#xe616;" 
d="M342 100q-74 -11 -80 -12q-16 -2 -26.5 7t-8.5 26q1 11 2.5 23t2.5 21.5t3 22.5q1 8 0 12t-3 5.5t-11 3.5q-37 12 -68 20q-16 5 -21 17.5t4 26.5q10 17 20.5 33t20.5 31q6 8 -2 15q-9 8 -19.5 17t-19.5 17t-19 18q-6 5 -8.5 11t-2 12t4.5 11.5t10 9.5q10 7 22 14.5
t22.5 14t22.5 13.5q8 5 4 14q-5 13 -15 36.5t-12 29.5q-4 8 -4 15.5t3 13t9.5 9.5t15.5 5q11 2 25 3.5t23 2.5t25 3q13 1 14 10v2q0 7 4 66q0 1 1 2q1 14 4 21q12 18 34 11q35 -11 75 -25q2 -1 4 -1h4q1 0 2.5 1t2.5 2.5t2 3.5q7 12 20 34.5t17 29.5q8 14 22.5 16t25.5 -9
q46 -44 58 -56q4 -4 11 1l6 3l57 39q17 11 30.5 6t19.5 -24q4 -11 12.5 -33.5t11.5 -34.5q3 -7 10 -6q13 2 39.5 6t40.5 6q15 2 25.5 -7.5t9.5 -24.5q-3 -30 -8 -68q-2 -12 0 -15t14 -7q42 -12 66 -19q12 -3 18 -10t5.5 -16.5t-6.5 -19.5q-33 -51 -40 -62q-5 -8 2 -14
q25 -22 58 -52q12 -11 10.5 -24.5t-15.5 -21.5q-5 -3 -15.5 -10t-17 -11t-16 -9.5t-16.5 -9.5q-9 -6 -5 -16q8 -16 28 -65q3 -9 3 -16t-3 -13t-9.5 -9.5t-15.5 -4.5q-36 -5 -73 -9q-7 0 -10 -3t-4 -9q0 -10 -1 -21t-2 -24.5t-1 -20.5q-1 -5 -1 -7.5t-1 -6.5t-2 -7
q-3 -6 -8.5 -9.5t-12 -4.5t-13.5 1q-38 11 -75 25q-11 4 -17 -7q-8 -16 -36 -63q-9 -15 -23 -16.5t-26 10.5q-6 6 -17.5 17t-21 20t-18.5 18q-4 3 -6 2.5t-5 -3.5q-18 -11 -33 -21t-29 -20q-37 -24 -51 18q-4 10 -12 32l-12 33q-3 10 -9 8v0zM743 287q1 32 -15 62
q-21 37 -61.5 42.5t-70.5 -25.5q-18 -19 -25 -45t-2 -53t21 -48q25 -32 62.5 -33.5t63.5 28.5q29 33 27 72v0zM484 480q0 45 -17 73q-22 36 -61.5 40.5t-68.5 -24.5q-28 -29 -29 -74.5t25 -75.5q24 -27 57 -30t59 21q34 30 35 70v0zM387 212q0 -3 1.5 -5t4.5 -4
q1 -1 6.5 -4.5t8.5 -4.5q7 -5 11.5 -4.5t9.5 8.5q6 10 18.5 29.5t18.5 28.5q19 31 46 72t52.5 81t45.5 72q13 19 50 78q8 13 -5 22l-7 3q-5 3 -7 5q-3 2 -5.5 2.5t-4.5 0t-4 -2.5l-4 -4q-1 -2 -2 -3.5t-2 -3.5t-2 -3q-101 -158 -112 -176q-23 -35 -65 -101l-49 -77l-4 -9v0z
M699 288q0 -12 -3.5 -22.5t-11.5 -19.5q-7 -9 -16.5 -12.5t-19.5 -1.5t-18 10q-19 17 -18.5 48t18.5 47q14 12 30 10.5t26 -16.5q13 -18 13 -43v0zM352 493q0 11 3.5 21.5t11.5 20.5q11 13 26 14.5t28 -9.5q19 -17 18.5 -49t-19.5 -48q-9 -7 -19 -9t-19.5 2.5t-16.5 14
t-10 19.5t-3 23v0z" />
    <glyph glyph-name="uniE621" unicode="&#xe621;" 
d="M824 -96q14 13 -71 111q-4 4 -5 6q-33 4 -100 7q38 -32 79 -63t67.5 -47.5t29.5 -13.5zM86 686q0 4 16 14.5t31 13.5q10 3 22.5 0t23.5 -8.5t26 -15.5q15 -9 28.5 -24.5t18.5 -18.5q7 -5 20 1.5t28.5 13.5t25.5 3q-2 -6 -10 -12t-16.5 -10t-9.5 -5q-5 -4 2 -13.5t6 -11.5
q-1 -6 -23 -5t-23 0q-3 -1 -4.5 -8.5t-2.5 -14.5t-3 -9q-3 -1 -11 1.5t-10 0.5q-6 -4 -10.5 -12t-6.5 -14t-4 -5q-10 11 16 59q9 18 -13 46q-13 17 -33 27.5t-35 5.5q-7 -2 -12 -11t-5 -14q-7 9 -17 13t-15 13zM22 377q4 -49 30 -71q10 -9 24.5 -11t19.5 -7q8 -6 3 -39
t3 -47q6 5 9.5 15.5t4.5 21.5t2 13q2 4 8 3t11.5 -3.5t8.5 0.5q2 3 2 8t-2 12t-4.5 13t-4 11t-1.5 7t3 5t7 5t8 4.5t7.5 5t3.5 3.5q1 3 -2 7t-5.5 8t-1.5 7q2 7 9 15t12 13t4 6q-7 3 -21.5 -7t-34.5 -33q-16 -18 -41 -9q-10 3 -13.5 8.5t-3.5 10.5t2 15t2 18q0 4 -8.5 -0.5
t-19.5 -9t-21 1.5zM371 345q152 -77 235 -107l6 -2q3 -1 6.5 -2.5t6.5 -2.5q-1 3 -4.5 11t-4.5 11t-4 10l-4 11q-2 3 -4.5 9t-4 9.5t-4 8.5t-4 8.5t-3.5 7t-4 6.5q-15 26 -57 93t-60 90q-12 15 -36 60.5t-44 68.5q-12 15 -25.5 19t-26.5 -1q-2 -5 -6.5 -9t-9 -6t-9.5 -4
t-6 -3q-4 -4 3 -13.5t5 -11.5q-5 -7 -17 -9t-21 -1t-13 0q-4 -2 -6 -16t-4.5 -15.5t-10.5 1t-10 1.5q-6 -4 -10.5 -12.5t-6.5 -14t-4 -4.5q-2 -6 -3 -11t-0.5 -10t2.5 -10q7 -12 24.5 -29t44.5 -39.5t31 -25.5q15 -15 63 -66zM348 567q-1 9 6 17t15 10t14 -1q3 -2 15 -22
t26 -43.5t19 -30.5q11 -14 46 -70t40 -66q3 -6 16.5 -34.5t22.5 -48.5t8 -21q-5 -3 -17 16t-25 47l-14 27q-12 20 -36.5 56t-44.5 64.5t-21 30.5q-9 18 -22 30.5t-23 17t-17 10t-8 11.5zM914 39q-48 50 -125.5 94t-145.5 65q-53 17 -156 62t-131 61q-8 4 -28.5 17t-36 22.5
t-34.5 18.5t-31 10q-7 1 -15 -2t-16 -10q2 -1 -3 -6t-12 -13t-9 -15q-1 -3 4 -10.5t5 -11.5q-1 -3 -14.5 -10.5t-14.5 -12.5q0 -2 2.5 -9.5t5.5 -15.5t3.5 -17.5t-4.5 -15.5q-1 -2 -14 1.5t-14 -2.5q-1 -2 -1.5 -10.5t-3 -17t-8.5 -14.5q1 -35 36 -49q30 -11 85 -19t74 -15
q30 -10 112 -29t114 -24q21 -4 117.5 -5.5t135.5 -11.5q3 -1 12.5 -5t20.5 -8.5t26.5 -10.5t29.5 -11q9 -3 21 -16.5t23.5 -29.5t23.5 -31t25.5 -23t24.5 -3q-18 19 -45.5 70t-38.5 63zM500 208q-16 1 -81 11.5t-81 15.5q-10 3 -26 8.5t-35 12t-33.5 12t-17.5 8.5
q-5 5 -5.5 14.5t5.5 19.5t16 12q8 2 24 -6t43.5 -23.5t51.5 -24.5q10 -4 63 -20t92 -31q8 -3 39 -11t51 -15.5t18 -14.5q0 -1 -5.5 0.5t-15 4t-20.5 6t-23.5 7t-24 6.5t-21 5.5t-14.5 2.5z" />
    <glyph glyph-name="uniE62A" unicode="&#xe62a;" 
d="M347 -21q-5 0 -10 2q-9 5 -10 15q-1 6 -2 21.5t0.5 53t7 75t21.5 84t40.5 85t68 72t100.5 49.5q36 11 71 27t63.5 34t52.5 38t41 40t27 38q3 4 7 7t9 3q4 1 7 -0.5t6 -3.5t5 -5q15 -23 24 -36.5t24 -40.5t23.5 -47t18.5 -50.5t13 -57t2.5 -59t-7.5 -65.5
q-6 -25 -15 -49.5t-31 -58t-50.5 -58t-76.5 -42t-107 -17.5q-27 0 -56 4q-117 15 -259 -56q-4 -2 -8 -2zM836 568q-39 -53 -110.5 -99.5t-151.5 -69.5q-167 -49 -203 -250q-10 -59 -7 -121q146 62 254 48q6 -1 11.5 -1.5t10.5 -1t10 -0.5h10h10q50 0 90 13.5t65 33.5
t44 47.5t28 51t14 48.5q7 30 8 60t-4 57.5t-12.5 51.5t-19.5 48.5t-22.5 43t-24.5 40.5zM258 57h-2h-3q-73 21 -128 73t-61 130q-4 48 9 99.5t31.5 87.5t43.5 71t36 47.5t19 20.5q4 4 10 5t12 -1q6 -3 16 -8.5t33 -24.5t41.5 -42t36.5 -61.5t25 -82.5q0 -3 -0.5 -6t-2 -6
t-3.5 -5t-5 -3.5t-6 -1.5q-8 -1 -14.5 4t-7.5 13q-5 30 -16 58t-23.5 47t-28.5 35.5t-27 25.5t-22 15q-17 -19 -34 -42.5t-40 -62.5t-35.5 -86.5t-8.5 -92.5q5 -64 51.5 -107t109.5 -61q7 -2 11 -9t2 -15q-1 -3 -2.5 -6t-4 -4.5t-5.5 -2.5t-7 -1zM347 -21l-7 1
q-8 3 -11.5 10t-0.5 15q16 43 30 73t37 64.5t57.5 62t79.5 48.5q37 17 100 36q14 4 20.5 6t18.5 6t18.5 7t16.5 7.5t16.5 9t15 11t15 13t14 15.5t14.5 19q5 7 13 8.5t14.5 -3.5t8 -13t-2.5 -14q-15 -21 -32 -37.5t-31 -26.5t-35 -19.5t-34 -14t-39 -11.5q-60 -19 -95 -35
q-40 -18 -70.5 -42.5t-51.5 -56t-33.5 -58.5t-27.5 -68q-5 -13 -18 -13z" />
    <glyph glyph-name="uniE62D" unicode="&#xe62d;" 
d="M835 805h-647l-184 -318h1016zM4 424v-64q0 -56 31 -95l1 -350q0 -53 38.5 -90t93.5 -37h688q35 0 66 17t49 46.5t18 63.5v350q32 37 32 95v64h-1017zM925 42h-826v191h62q28 0 61.5 22t50.5 55q19 -34 52 -55.5t67 -21.5q37 0 71.5 20t48.5 50q13 -30 47 -50t70 -20
q35 0 68.5 23t51.5 59q23 -37 52.5 -59.5t60.5 -22.5q1 0 17 -0.5t29.5 -0.5t16.5 1v-191z" />
    <glyph glyph-name="uniE62F" unicode="&#xe62f;" 
d="M706 527l-194 284l-194 -284l-317 -125l192 -273v-340l319 136l320 -136v340l191 273zM704 197v-204l-192 68l-191 -68v204l-128 137l192 68l127 204l128 -204l192 -68z" />
    <glyph glyph-name="uniE630" unicode="&#xe630;" 
d="M885 101q-19 -15 -10 -38q1 -3 2 -6.5t2.5 -14.5t0.5 -21q-3 -41 -41 -58q-16 -7 -19 -26q-4 -22 -15 -43q-10 -18 -22.5 -29.5t-21.5 -12.5q0 1 -17.5 2t-43.5 2t-38 2q-26 2 -56.5 8.5t-64 15t-55.5 12.5q-52 9 -110 17q-66 9 -99 12q-16 2 -45.5 3.5t-39.5 1.5h-6
q-14 -4 -20 10q-12 24 -18 40q-17 55 -27 138q-8 62 -6 104q1 18 5 40q2 12 16 15q43 7 109 21q11 2 21 4.5t26 7.5q17 4 32 13t27 23q29 30 92 96q32 35 48 53q25 28 77 65q27 20 50 43t41 49q13 19 35 65q4 9 10 18q12 20 35 14q13 -4 22 -12.5t15 -21.5q15 -30 11 -76
q-2 -17 -7.5 -34t-15.5 -39q-39 -82 -48 -108q-4 -13 -6 -24q-2 -24 20 -35q15 -7 41 -11q10 -1 26 -3.5t30 -5t26 -4.5q25 -5 33 -10q5 -3 9 -8t5.5 -8t2.5 -6q17 -39 -12 -81q-4 -6 -5.5 -12.5t-0.5 -12.5t5 -12l3 -7t7 -16.5t6.5 -23t2.5 -26t-6 -26t-18 -23.5z" />
    <glyph glyph-name="uniE65B" unicode="&#xe65b;" 
d="M820 274q9 0 16 7t7 16q0 7 -3 12.5t-8.5 8.5t-11.5 3h-281v33q0 10 -7 17t-17 7q-3 0 -5 -1l-6 -2q-2 -1 -4 -2.5t-3.5 -3.5t-3 -4.5t-2 -5t-0.5 -5.5v-33h-37q-5 0 -9.5 -2t-7.5 -5t-5 -7.5t-2 -9.5q0 -4 1 -7.5t3.5 -6.5t5.5 -5t6.5 -3t7.5 -1h37v-226q0 -10 7 -17
t17 -7t17 7t7 17v226h281zM779 -17q63 57 99 134.5t36 165.5q0 87 -37 166q22 34 29.5 71t0.5 72q-13 65 -70 102q-26 17 -56 22.5t-58 0.5t-53 -18t-43 -31q-14 4 -28 7t-28 5t-29 3t-30 1q-59 0 -115 -16q-38 39 -96 48.5t-114 -22.5q-14 -9 -25.5 -20t-20.5 -24
t-15 -27.5t-9 -30.5q-15 -72 30 -143q-37 -79 -37 -166q0 -88 36 -165.5t99 -134.5l-62 -61q-7 -7 -7 -17t7 -17t17 -7q4 0 8.5 2t8.5 5l65 66q104 -73 230 -73t230 73l65 -66q7 -7 17 -7q5 0 9.5 2t7.5 5q5 5 6.5 11t0 12t-6.5 11zM811 654q13 -9 23.5 -19.5t17 -23.5
t9.5 -28q8 -41 -11 -84q-64 100 -172 150q28 20 63.5 22.5t69.5 -17.5zM163 583q5 22 17.5 40t32.5 31q33 20 68.5 17.5t64.5 -22.5q-108 -50 -172 -150q-19 43 -11 84zM158 283q0 72 28 137.5t75.5 113t113 75.5t137.5 28q96 0 177.5 -47.5t129 -129t47.5 -177.5
t-47.5 -177.5t-129 -129t-177.5 -47.5t-177.5 47.5t-129 129t-47.5 177.5z" />
    <glyph glyph-name="uniE667" unicode="&#xe667;" 
d="M862 481q-9 -9 -22 -9t-21 9l-11 11q-9 9 -20 15t-22.5 9t-23.5 3t-23.5 -3t-22 -9t-19.5 -15l-11 -11l-11 -10l22 -22q13 -13 20.5 -30t7.5 -34.5t-7.5 -34.5t-20.5 -30q-2 -2 -7 -6t-8 -7t-2 -3l-452 -268q-2 0 -3.5 -1.5t-4.5 -1.5q-1 0 -3 -1t-3 -1h-5q-2 0 -3.5 0.5
t-2.5 1.5l-3 1l-9 6q-3 3 -6 10q0 3 -2 3l-1 3v3v5l1 6l1 2l1 2l1 2l275 442l15 17q28 27 66.5 27t64.5 -27l22 -21l11 11q28 26 28 64.5t-28 64.5l-33 33q-6 6 -8 13.5t0 15.5t8 14q10 9 22.5 9t21.5 -9l32 -33q27 -24 37 -60q2 42 -26 71l-11 11q-6 6 -8 14t0 15.5t8 13.5
q9 9 22 9t21 -9l11 -11q35 -34 43 -82t-12 -89q58 -2 100 -45l11 -10q11 -8 11.5 -21t-8.5 -23zM499 492l-7 -7l-11 -19l51 -51q9 -9 9 -21.5t-9 -21.5q-4 -4 -8.5 -6t-9 -3t-9.5 0t-9 3t-7 6l-42 40l-162 -259l171 102l-21 21q-6 6 -8.5 14t0 15.5t8.5 14t14 8.5t16 0
t13 -8l32 -33l114 68q2 3 8 8q9 9 9 21.5t-9 21.5l-43 43l-43 43q-11 10 -24 10t-23 -10zM499 492z" />
    <glyph glyph-name="uniE6AA" unicode="&#xe6aa;" 
d="M932 508q1 37 -12.5 83.5t-45.5 99t-77.5 96t-117 74.5t-155.5 35q-176 1 -295.5 -116.5t-127.5 -257.5q-28 -6 -52 -29.5t-37 -54t-11.5 -65.5t22.5 -61q14 -19 24.5 -29.5t36.5 -25.5t66 -30l107 -346q7 -7 21 -9q39 4 468 0q1 1 7 0t15.5 5.5t14.5 20t30 102t48 170.5
l23 81q2 0 4.5 0.5t11.5 1.5t17.5 3t20.5 6t22.5 9.5t21.5 14t19.5 19t14.5 25.5t8 33q1 40 -10 68t-30.5 45t-51.5 32v0zM328 -62q-8 -2 -14.5 -0.5t-12 7t-7.5 12.5l-61 200q-3 11 2 21t15 14q7 1 14 -0.5t12 -6.5t8 -12l61 -201q3 -11 -2 -21t-15 -13v0zM455 -67
q-4 0 -8.5 1t-8 3t-6 5t-4.5 7t-3 8l-26 209q-1 7 1.5 13.5t8 11t13.5 5.5q5 1 10 -0.5t9 -5t7 -8t3 -10.5l27 -208q1 -7 -2 -14t-8.5 -11.5t-12.5 -5.5v0zM629 166l-27 -209q-1 -7 -5 -13t-10.5 -9t-14.5 -2q-11 2 -17.5 11t-4.5 20l26 208q1 12 10 19t20 5.5t17.5 -10.5
t5.5 -20v0zM794 157l-61 -200q-3 -11 -13 -16.5t-20.5 -2.5t-15.5 13t-1 21l61 201q3 11 13 16.5t20 2.5q7 -3 12 -8t6 -12t-1 -15v0zM962 372q-5 -15 -17 -28.5t-30 -23t-44 -3t-53 31.5q-6 4 -10.5 5t-12 -2.5t-17.5 -13.5q-5 -5 -12 -17.5t-15 -23.5t-20.5 -22t-33 -17.5
t-47.5 -5.5q-35 2 -66.5 25.5t-52.5 51.5q-3 6 -8 9.5t-11 4.5t-12 0t-11.5 -5t-10.5 -10q-8 -12 -20 -22t-32 -18t-46.5 -1t-53.5 32q-12 16 -28 17t-36 -17q-11 -12 -29.5 -20t-43.5 -11.5t-56 10t-59 44.5q-8 8 -10.5 21t-0.5 26.5t9 27.5t17.5 26.5t26 21.5t33.5 13
l7 11q0 6 1 18t9.5 46t21.5 65t40.5 70t63 67.5t93 50t127.5 24.5q72 -3 131 -25.5t99.5 -57t69.5 -81t44.5 -96.5t20.5 -106q31 -8 52.5 -23t29.5 -33t3 -36v0zM533 701q0 9 -4 16.5t-11.5 11.5t-16.5 4q-5 0 -10 -1.5t-9 -4.5t-7 -7t-4.5 -9t-1.5 -10q0 -13 9.5 -22.5
t22.5 -9.5t22.5 9.5t9.5 22.5v0zM738 647q0 13 -9 22.5t-22 9.5q-7 0 -13 -2.5t-10 -6.5t-6.5 -10t-2.5 -13q0 -13 9 -22.5t23 -9.5q6 0 12 2.5t10 7t6.5 10.5t2.5 12v0zM725 482q-13 0 -22.5 -9.5t-9.5 -22.5t9.5 -22.5t23 -9.5t22.5 9.5t9 22.5q0 7 -2.5 12.5t-6.5 10
t-10 7t-13 2.5v0zM513 514q-9 0 -16 -4.5t-11.5 -11.5t-4.5 -16t4.5 -16t11.5 -11.5t16 -4.5q13 0 22.5 9.5t9.5 22.5t-9.5 22.5t-22.5 9.5v0zM321 637q-3 0 -6.5 -0.5t-6 -1.5t-5.5 -3t-5 -4t-3.5 -4.5t-3 -5.5t-2 -6t-0.5 -7q0 -13 9.5 -22t22.5 -9t22.5 9t9.5 22.5
t-9.5 22.5t-22.5 9v0zM264 482q-14 0 -23 -9.5t-9 -22.5q0 -9 4 -16t11.5 -11.5t16.5 -4.5q13 0 22 9.5t9 22.5t-9 22.5t-22 9.5v0zM264 482z" />
    <glyph glyph-name="uniE6AC" unicode="&#xe6ac;" 
d="M337 266zM577 32zM337 266q-4 1 -10.5 7.5t-13 13.5t-9.5 11q-7 10 -12 18t-10 17.5t-9 20.5l-14 40q-1 2 -3.5 12.5t-5.5 17t-6 9.5q-9 10 -22.5 8.5t-20.5 -12.5q-3 -7 -7 -14.5t-7.5 -16t-6.5 -14.5q-2 -4 -5 -12t-4 -11q-9 -18 -17 -48t-13 -53q-6 -32 -6 -48v-14
q0 -9 0.5 -16t0.5 -13q3 -34 13 -75q12 -47 35 -83q2 -3 4 -7q5 -9 11 -17t12 -15q15 -17 25 -28q12 -12 29 -25q14 -11 39 -26q20 -12 52 -24q3 -1 4 -1.5t3.5 -1t4.5 -1.5t4 -1q1 -1 3 -1l5 -2q4 -1 9 -2l17 -4q1 0 3 -1h2h-1q-1 1 -3 2l-3 2l-2 2h-1l-1 1l-2 2q-1 0 -2 1
q-7 5 -12.5 10t-9.5 9l-3 5q-2 2 -7 9q-2 1 -3 2.5t-2 3.5l-1 1q0 1 -0.5 1.5t-1 1.5t-1.5 2q-1 3 -4 8q-2 4 -3 5.5t-3 7.5q-1 1 -3 7q-5 13 -7 25q-1 5 -2 9.5t-1 8.5v6q-1 3 -1 4v3v3v4v4v3v4q0 2 1 6v4q0 7 2 19q2 10 4 16q1 1 1 3q0 1 1 1q1 3 3 8.5t3 6.5l2 4l2 4l2 4
l2 4q1 2 2.5 4t2.5 4l5 11v2l1 1q6 17 8 30v2v2v5q0 3 -0.5 5t0 4.5t1.5 4.5q5 9 15 6q8 -2 21 -15l3 -4q1 -1 1 -2q15 -20 20 -54l1 -1v-3l2 2q7 13 10 21q0 1 1 2v1l6 17q3 10 4.5 21t3.5 24q0 5 1 17v9q0 6 -0.5 17t-1.5 16q-2 13 -1 16q3 6 9 9q3 0 4 0.5t4 -0.5t4 -1
l4 -2l3 -2q8 -3 20 -11q17 -12 28 -25l2 -2l1 -1l2 -2l5 -7q10 -12 20 -34q0 -1 1 -3q2 -3 4 -10v-2l6 -18q3 -12 5 -31q2 -24 0 -51q-1 -4 -5 -27v-1v-3q6 2 15 16q10 14 15 26l7 20q1 1 2 6t2 8l3 5q3 3 7 3.5t8 -1t6 -4.5q2 -5 6 -14q3 -5 4 -8q1 -2 2.5 -5.5t2.5 -5.5
q9 -20 14 -49q1 -4 1.5 -7.5t1 -8t0.5 -7.5q0 -17 -1 -21q-1 -17 -6 -36q-1 -4 -3 -9l-4 -12q-2 -5 -4.5 -10.5t-5.5 -8.5l-2 -4q-2 -4 -5 -7.5t-6 -7.5q-4 -4 -6 -7t-6 -6q-5 -6 -10 -9q25 8 45 19q3 1 7 3l14 8q3 2 7 4l7 4q0 1 6 5q2 1 6 4q2 1 3 2q33 25 45 41l8 9
q5 4 15 18l3 5q1 1 2.5 3.5t3.5 4.5l1 1q2 4 3 5q2 4 4 7q3 5 8.5 15t7 13t3.5 8.5t3 6.5q2 5 5 14l1 2q3 8 5 16l6 18q2 8 4 17q1 8 2 12.5t2 12t1 12.5q0 3 1 10t1 11v10v11v12v10q0 3 -0.5 7t-0.5 7v7q0 15 -5 39q-2 10 -4 18.5t-5 15.5q0 3 -2 9l-2 6l-4 6l-2 6t-2.5 6
t-2.5 6q-2 6 -6 13t-7 12.5t-7 12.5t-7 12l-10 22l-1 2l-1 3q-1 1 -1 2q-12 34 -16 61q-1 7 -1 10q0 5 1 13t0.5 14t-4.5 11q-3 7 -11.5 11.5t-17.5 1.5q-16 -4 -43 -31l-8 -9q0 -1 -1 -2t-2 -1q-17 -25 -26 -50.5t-14 -61.5l-1 -2l-1 -8l-3 6q-3 4 -6 9.5t-6 11.5t-5.5 12
t-3.5 10q-1 1 -2 3l-1 4l-11 34q-7 21 -10.5 43.5t-6.5 50.5q-1 10 -2 34l-1 19q0 39 5 69q0 2 1 8l2 9v7.5t-1 8.5l-2 4q-1 2 -2.5 4t-3 3.5t-3 2.5t-3.5 2t-5 2q-6 1 -8 1.5t-8.5 -1.5t-8.5 -3t-8 -3.5t-8 -3.5q-9 -4 -19.5 -10t-21.5 -14q-16 -11 -31 -24t-27 -27l-2 -2
l-3 -3q0 -1 -1 -2l-3 -3l-12 -15q-7 -9 -14.5 -21.5t-14 -24.5t-11.5 -24q0 -1 -1 -3l-2 -3l-8 -24l-12 -39q-6 -23 -10 -63q-5 -49 0 -106q1 -9 9 -56q0 -1 1 -3z" />
    <glyph glyph-name="uniE6CB" unicode="&#xe6cb;" 
d="M649 107h-365q-9 0 -15.5 6.5t-6.5 16t6.5 16t15.5 6.5h365q6 0 11 -3t8 -8t3 -12q0 -9 -6.5 -15.5t-15.5 -6.5zM649 220h-365q-9 0 -15.5 7t-6.5 16q0 6 3 11.5t8 8.5t11 3h365q4 0 8.5 -2t7.5 -5t4.5 -7t1.5 -9q0 -9 -6.5 -16t-15.5 -7zM375 448q-4 0 -8.5 2t-7.5 5
t-4.5 7t-1.5 8.5t1.5 9t4.5 7.5t7.5 4.5t8.5 1.5h183q9 0 15.5 -6.5t6.5 -16t-6.5 -16t-15.5 -6.5h-183zM671 357q0 -10 -6.5 -16.5t-15.5 -6.5h-365q-3 0 -6.5 1t-6.5 3.5t-5 5t-3 6t-1 7.5q0 6 3 11.5t8 8.5t11 3h365q6 0 11 -3t8 -8.5t3 -11.5zM853 -53h-682
q-19 0 -34.5 9.5t-25 25t-9.5 34.5v568q0 29 20 49t49 20h341h205h68q7 0 14 -2.5t13 -6.5t10 -9.5t6.5 -12.5t2.5 -15v-318v-75v-130q0 -6 -3.5 -11.5t-8.5 -8.5t-11 -3q-5 0 -9 2t-7 5t-5 7t-2 9v136v69v273q0 19 -13.5 32t-31.5 13h-274h-68h-205q-18 0 -31.5 -13
t-13.5 -32v-524q0 -12 6 -22.5t16.5 -16.5t22.5 -6h569h46h23q9 0 17.5 3.5t14.5 9.5t9.5 14.5t3.5 17.5v524q0 9 6.5 15.5t16.5 6.5q6 0 11.5 -3t8.5 -8t3 -11v-524v-22q0 -29 -20 -49t-49 -20z" />
    <glyph glyph-name="uniE773" unicode="&#xe773;" 
d="M590 -151q-91 0 -180 9l-256 35v374h96q4 2 9 6.5t16 18t22.5 33t28 54.5t33.5 80q6 14 15.5 27t17 19.5t21.5 17.5q26 20 40.5 57.5t20.5 129.5q1 14 12 24t33 10q13 0 28 -4.5t31.5 -15.5t28.5 -27q23 -32 26.5 -82t-14.5 -95q-4 -9 -16 -33q-28 -58 -32 -81q37 1 71 1
q66 0 96.5 -3t42.5 -8q23 -10 47 -45.5t22 -62.5q0 -3 -0.5 -6.5t-1.5 -6t-2.5 -5.5t-3 -5t-3.5 -5.5t-3.5 -5t-3.5 -4.5q-7 -9 -9 -12q2 -5 10 -18l9 -15q3 -5 5.5 -13.5t2.5 -15.5q0 -18 -23 -44q-2 -3 -3.5 -4.5t-3.5 -4t-3.5 -4.5t-1.5 -3t0.5 -3t2 -5t2.5 -6l2 -6
q11 -26 11 -39q0 -25 -34 -58q-3 -3 -5 -5.5t-5 -5.5t-3 -4q-1 -4 -1 -6.5t1 -9.5q1 -24 -4 -35q-9 -21 -35 -44.5t-47 -29.5q-33 -10 -110 -10zM415 -94h1q5 -1 10.5 -1.5t20 -1.5t30.5 -2t35 -2t39.5 -1.5t38.5 -0.5q70 0 96 8q11 3 29 19.5t23 27.5v13v1q-1 28 5 40
q1 2 3 5t4 5.5t5 6t5 5.5t6 5q18 19 19 24q0 3 -7 21q-12 29 -11 43q1 17 24 42q2 3 3.5 5t4 4.5t3.5 4.5q-1 1 -1.5 2.5t-1.5 3t-1.5 3t-1.5 3.5t-2 3t-2 3q-19 31 -17 49q1 6 4 12.5t6 11t8 11.5q2 1 2.5 2.5t2 3.5t2.5 3t1.5 2.5t1.5 2.5q0 3 -3 10t-7.5 14.5t-9.5 14.5
t-11 12.5t-10 7.5q-19 7 -120 7q-45 0 -90 -1h-1l-14 -1l-7 13q-6 10 -6.5 24t1.5 26t9 30t12 28.5t14 29.5l6 12l4 9q3 5 4 9q13 33 11.5 71t-16.5 59q-20 26 -48 28q-7 -93 -25 -137.5t-52 -71.5q-33 -27 -40 -45q-15 -40 -30 -73t-30 -59.5t-29.5 -45.5t-28 -30
t-26.5 -14l-6 -1h-52v-284z" />
    <glyph glyph-name="uniE791" unicode="&#xe791;" 
d="M509 302zM387 302h244q0 -10 -2 -19.5t-5 -18.5t-7 -17.5t-9.5 -16t-12.5 -14.5t-14.5 -12.5t-16 -9.5t-17.5 -7.5t-18.5 -5t-19.5 -1.5q-34 0 -62 16.5t-44 44.5t-16 61zM948 332q-1 12 -108 112q-191 165 -393 140q-17 -2 -33.5 -6t-30.5 -8.5t-28 -9.5t-25.5 -10
t-21.5 -10.5t-18 -10t-14 -8t-10 -5.5l-4 -3q-32 -18 -75 -56.5t-72 -68.5q-6 -7 -15 -16l-14 -14q-5 -5 -10 -11t-7 -12q-10 -21 -7.5 -38.5t8 -29.5t6.5 -12l68 -68q17 -19 48 -47t123.5 -75t181.5 -47q66 0 122 11t98 32t62.5 34.5t45.5 33.5q5 4 8 6q57 45 115 122
q8 17 8 35.5t-4 29.5zM508.5 97q-84.5 0 -144.5 60t-60 145t60 145t145 60q33 0 64.5 -10t56.5 -29t44 -44.5t29.5 -56.5t10.5 -65q0 -85 -60.5 -145t-145 -60z" />
    <glyph glyph-name="uniE8BB" unicode="&#xe8bb;" 
d="M148 642q-1 1 -12 15.5t-16 23t-7.5 23t5.5 23t32.5 15t65.5 6.5q10 0 20 -4.5t19 -15t16 -20.5t15.5 -28t13.5 -28.5t13.5 -32t12.5 -29.5q4 -14 12 -38t26.5 -93t32 -132t22.5 -140t5 -132l24 23q15 16 59 68t84 107t88 139t82 168q4 9 5.5 23t-3 31t-16.5 28
q-17 13 3 33q31 29 100 21q13 -2 24 -6.5t21 -15.5t13.5 -26.5t-2 -40.5t-21.5 -56q-6 -14 -17 -38t-47.5 -94t-75 -134t-95.5 -143.5t-112.5 -137.5t-123.5 -101t-131 -48q22 127 12 294q-18 295 -147 493z" />
    <glyph glyph-name="uF0010" unicode="&#xf0010;" 
d="M317 11q-79 -12 -85 -13q-18 -3 -29 7t-9 28q2 26 8 71q2 13 0 16t-14 7q-40 12 -72 21q-17 5 -22.5 18.5t3.5 27.5q23 37 44 69q4 5 3.5 8t-5.5 7q-27 23 -62 56q-12 10 -10.5 24t14.5 23q32 20 72 44q3 2 4.5 4t1.5 5t-2 6q-4 10 -9 22t-10.5 26t-9.5 22q-4 9 -4 17
t3.5 14t10 10t16.5 6q26 4 77 9q5 0 8 1t5 4t2 8q1 10 1.5 21.5t2 26.5t1.5 22q2 17 6 24q12 19 35 12q13 -4 26.5 -8.5t26.5 -9t27 -8.5q6 -3 10 -1.5t7 7.5q7 13 21 36.5t18 31.5q9 15 24 17t27 -9q5 -5 12.5 -12t12.5 -12l12 -11q6 -7 12.5 -13t11.5 -12q5 -3 7 -2.5
t6 2.5q47 32 67 45q9 6 17 7.5t15 -1t12.5 -8.5t8.5 -16q4 -13 13 -37t13 -36q3 -7 11 -6q13 2 41.5 6t42.5 6q17 3 28 -7t9 -27q-1 -17 -3.5 -35t-4.5 -37q-2 -13 0 -16t15 -7q14 -4 24 -7t23 -6.5t24 -7.5q12 -3 18.5 -10.5t6.5 -17.5t-7 -21q-35 -54 -43 -65
q-2 -4 -2.5 -6t0.5 -4.5t4 -5.5q15 -13 30 -26.5t32 -28.5q5 -5 7.5 -10t3 -10.5t-1 -10.5t-5.5 -9.5t-9 -8.5q-58 -36 -70 -43q-9 -5 -5 -16q3 -7 6 -13.5t6.5 -15t5.5 -13t6 -15t6 -13.5q7 -18 0 -30.5t-27 -15.5q-38 -5 -78 -9q-13 -3 -14 -13q0 -7 -1 -14v-14
q-1 -7 -1.5 -13.5t-1.5 -14.5t-1 -14q-1 -15 -4 -22q-4 -7 -9.5 -11t-12.5 -5t-15 2q-40 12 -79 26q-12 5 -18 -7q-9 -17 -39 -67q-9 -15 -24 -17t-28 10q-6 7 -18.5 19t-22.5 21.5t-19 18.5q-5 5 -13 0q-39 -27 -66 -45q-18 -12 -32.5 -7t-21.5 26q-4 10 -8 22l-10 26
q-4 12 -7 22q-4 11 -10 9zM745 209q1 35 -17 66q-22 40 -65.5 45.5t-75.5 -27.5q-28 -30 -30 -75.5t25 -80.5q17 -21 41.5 -29.5t49.5 -2t43 27.5q10 11 16.5 23.5t9.5 25.5t3 27zM468 414q0 29 -4 45t-14 34q-23 38 -65 43t-73 -27q-30 -31 -31.5 -79t27.5 -80
q25 -29 60.5 -32t62.5 22q36 32 37 74zM365 129q0 -3 1.5 -5t4.5 -4q2 -1 4 -2.5t4 -2.5t4 -2.5t4 -2.5q6 -4 9.5 -4.5t6.5 1.5t6 7q5 7 10.5 16t10 15.5t10 15.5t9.5 16q21 32 49 76t56 87l49 76l9 14q5 7 8.5 13t9 14.5t8.5 13.5t9 14.5t9 13.5q5 8 4 13t-10 10q-2 1 -7 4
t-8 5q-11 7 -18 -5q-1 -1 -2 -3t-2.5 -4t-2.5 -3q-110 -172 -120 -187q-24 -38 -69.5 -109.5t-51.5 -80.5q-4 -6 -4 -10zM698 210q0 -12 -4 -23.5t-13 -21.5q-11 -14 -27.5 -15t-29.5 11q-20 18 -20 51t20 51q10 8 21 10t21 -2.5t17.5 -14.5t11 -21t3.5 -25zM328 428
q-1 13 3 24t13 21q11 14 27 15.5t30 -10.5q13 -11 18 -31t-0.5 -40t-18.5 -32q-10 -8 -20.5 -9.5t-20.5 3t-18 14.5q-13 19 -13 45z" />
  </font>
</defs>
</svg>
